<svg width="20" height="20" viewBox="0 0 20 20" fill="none" xmlns="http://www.w3.org/2000/svg">
<path d="M18.7168 5.00004C18.0751 5.29171 17.3834 5.48337 16.6668 5.57504C17.4001 5.13337 17.9668 4.43337 18.2334 3.59171C17.5418 4.00837 16.7751 4.30004 15.9668 4.46671C15.3084 3.75004 14.3834 3.33337 13.3334 3.33337C11.3751 3.33337 9.77511 4.93337 9.77511 6.90837C9.77511 7.19171 9.80845 7.46671 9.86678 7.72504C6.90011 7.57504 4.25845 6.15004 2.50011 3.99171C2.19178 4.51671 2.01678 5.13337 2.01678 5.78337C2.01678 7.02504 2.64178 8.12504 3.60845 8.75004C3.01678 8.75004 2.46678 8.58337 1.98345 8.33337V8.35837C1.98345 10.0917 3.21678 11.5417 4.85011 11.8667C4.32572 12.0102 3.77519 12.0302 3.24178 11.925C3.46812 12.6354 3.91139 13.257 4.50929 13.7025C5.10719 14.1479 5.82965 14.3948 6.57511 14.4084C5.31147 15.4087 3.74511 15.9495 2.13345 15.9417C1.85011 15.9417 1.56678 15.925 1.28345 15.8917C2.86678 16.9084 4.75011 17.5 6.76678 17.5C13.3334 17.5 16.9418 12.05 16.9418 7.32504C16.9418 7.16671 16.9418 7.01671 16.9334 6.85837C17.6334 6.35837 18.2334 5.72504 18.7168 5.00004Z" fill="white"/>
</svg>
