<svg width="20" height="20" viewBox="0 0 20 20" fill="none" xmlns="http://www.w3.org/2000/svg">
<g clip-path="url(#clip0_22151_787)">
<path d="M1.3748 6.68379C-0.457617 8.48066 -0.457617 11.4846 1.3748 13.3166L6.68379 18.6252C8.48066 20.4572 11.4846 20.4572 13.3166 18.6252L18.6252 13.3166C20.4572 11.4846 20.4572 8.48066 18.6252 6.68379L13.3166 1.3748C11.4846 -0.457617 8.48066 -0.457617 6.68379 1.3748L1.3748 6.68379ZM12.3244 12.3244C11.0393 13.6057 8.96113 13.6057 7.67988 12.3244C6.39473 11.0393 6.39473 8.96113 7.67988 7.67988C8.96113 6.39473 11.0393 6.39473 12.3244 7.67988C13.6057 8.96113 13.6057 11.0393 12.3244 12.3244Z" fill="white"/>
</g>
<defs>
<clipPath id="clip0_22151_787">
<rect width="20" height="20" fill="white"/>
</clipPath>
</defs>
</svg>
