<svg width="20" height="20" viewBox="0 0 20 20" fill="none" xmlns="http://www.w3.org/2000/svg">
<path d="M18.0526 8.32253L18.0293 8.26253L15.7635 2.35086C15.7176 2.23423 15.636 2.13515 15.5303 2.06791C15.4245 2.00067 15.3002 1.96873 15.1751 1.9767C15.0499 1.98227 14.9298 2.02737 14.8318 2.10553C14.7339 2.18369 14.6633 2.29088 14.6301 2.4117L13.1001 7.10003H6.90178L5.36928 2.41253C5.33649 2.29166 5.26624 2.1843 5.16863 2.10584C5.07101 2.02739 4.95104 1.98188 4.82595 1.97586C4.70089 1.96906 4.57684 2.00156 4.47118 2.06881C4.36553 2.13606 4.28356 2.23468 4.23678 2.35086L1.96845 8.27086L1.94512 8.3292C1.61946 9.18181 1.5794 10.1171 1.83097 10.9944C2.08254 11.8718 2.61213 12.6437 3.34012 13.1942L3.34845 13.2L3.36845 13.2159L6.82428 15.8025L8.53262 17.0967L9.57178 17.8834C9.69371 17.9754 9.84233 18.0252 9.99512 18.0252C10.1479 18.0252 10.2965 17.9754 10.4185 17.8834L11.4576 17.0967L13.166 15.8025L16.6426 13.2L16.651 13.1934C17.3816 12.6436 17.9134 11.871 18.1663 10.9923C18.4192 10.1136 18.3793 9.17654 18.0526 8.32253Z" fill="white"/>
</svg>
